<svg id="visual" viewBox="0 0 900 600" width="900" height="600" xmlns="http://www.w3.org/2000/svg" xmlns:xlink="http://www.w3.org/1999/xlink" version="1.1"><rect x="0" y="0" width="900" height="600" fill="#0D121C"></rect><defs><linearGradient id="grad1_0" x1="33.3%" y1="100%" x2="100%" y2="0%"><stop offset="20%" stop-color="#161f2c" stop-opacity="1"></stop><stop offset="80%" stop-color="#161f2c" stop-opacity="1"></stop></linearGradient></defs><defs><linearGradient id="grad1_1" x1="33.3%" y1="100%" x2="100%" y2="0%"><stop offset="20%" stop-color="#161f2c" stop-opacity="1"></stop><stop offset="80%" stop-color="#151d2a" stop-opacity="1"></stop></linearGradient></defs><defs><linearGradient id="grad1_2" x1="33.3%" y1="100%" x2="100%" y2="0%"><stop offset="20%" stop-color="#141b27" stop-opacity="1"></stop><stop offset="80%" stop-color="#151d2a" stop-opacity="1"></stop></linearGradient></defs><defs><linearGradient id="grad1_3" x1="33.3%" y1="100%" x2="100%" y2="0%"><stop offset="20%" stop-color="#141b27" stop-opacity="1"></stop><stop offset="80%" stop-color="#131a25" stop-opacity="1"></stop></linearGradient></defs><defs><linearGradient id="grad1_4" x1="33.3%" y1="100%" x2="100%" y2="0%"><stop offset="20%" stop-color="#111823" stop-opacity="1"></stop><stop offset="80%" stop-color="#131a25" stop-opacity="1"></stop></linearGradient></defs><defs><linearGradient id="grad1_5" x1="33.3%" y1="100%" x2="100%" y2="0%"><stop offset="20%" stop-color="#111823" stop-opacity="1"></stop><stop offset="80%" stop-color="#101620" stop-opacity="1"></stop></linearGradient></defs><defs><linearGradient id="grad1_6" x1="33.3%" y1="100%" x2="100%" y2="0%"><stop offset="20%" stop-color="#0f141e" stop-opacity="1"></stop><stop offset="80%" stop-color="#101620" stop-opacity="1"></stop></linearGradient></defs><defs><linearGradient id="grad1_7" x1="33.3%" y1="100%" x2="100%" y2="0%"><stop offset="20%" stop-color="#0f141e" stop-opacity="1"></stop><stop offset="80%" stop-color="#0d121c" stop-opacity="1"></stop></linearGradient></defs><defs><linearGradient id="grad2_0" x1="0%" y1="100%" x2="66.7%" y2="0%"><stop offset="20%" stop-color="#161f2c" stop-opacity="1"></stop><stop offset="80%" stop-color="#161f2c" stop-opacity="1"></stop></linearGradient></defs><defs><linearGradient id="grad2_1" x1="0%" y1="100%" x2="66.7%" y2="0%"><stop offset="20%" stop-color="#151d2a" stop-opacity="1"></stop><stop offset="80%" stop-color="#161f2c" stop-opacity="1"></stop></linearGradient></defs><defs><linearGradient id="grad2_2" x1="0%" y1="100%" x2="66.7%" y2="0%"><stop offset="20%" stop-color="#151d2a" stop-opacity="1"></stop><stop offset="80%" stop-color="#141b27" stop-opacity="1"></stop></linearGradient></defs><defs><linearGradient id="grad2_3" x1="0%" y1="100%" x2="66.7%" y2="0%"><stop offset="20%" stop-color="#131a25" stop-opacity="1"></stop><stop offset="80%" stop-color="#141b27" stop-opacity="1"></stop></linearGradient></defs><defs><linearGradient id="grad2_4" x1="0%" y1="100%" x2="66.7%" y2="0%"><stop offset="20%" stop-color="#131a25" stop-opacity="1"></stop><stop offset="80%" stop-color="#111823" stop-opacity="1"></stop></linearGradient></defs><defs><linearGradient id="grad2_5" x1="0%" y1="100%" x2="66.7%" y2="0%"><stop offset="20%" stop-color="#101620" stop-opacity="1"></stop><stop offset="80%" stop-color="#111823" stop-opacity="1"></stop></linearGradient></defs><defs><linearGradient id="grad2_6" x1="0%" y1="100%" x2="66.7%" y2="0%"><stop offset="20%" stop-color="#101620" stop-opacity="1"></stop><stop offset="80%" stop-color="#0f141e" stop-opacity="1"></stop></linearGradient></defs><defs><linearGradient id="grad2_7" x1="0%" y1="100%" x2="66.7%" y2="0%"><stop offset="20%" stop-color="#0d121c" stop-opacity="1"></stop><stop offset="80%" stop-color="#0f141e" stop-opacity="1"></stop></linearGradient></defs><g transform="translate(900, 600)"><path d="M-540.8 0C-515.2 -87.4 -489.6 -174.9 -447.7 -258.5C-405.9 -342.1 -347.7 -422 -270.4 -468.4C-193.1 -514.8 -96.5 -527.8 0 -540.8L0 0Z" fill="#0e131d"></path><path d="M-473.2 0C-450.8 -76.5 -428.4 -153 -391.8 -226.2C-355.1 -299.4 -304.3 -369.2 -236.6 -409.8C-168.9 -450.4 -84.5 -461.8 0 -473.2L0 0Z" fill="#10151f"></path><path d="M-405.6 0C-386.4 -65.6 -367.2 -131.2 -335.8 -193.9C-304.4 -256.6 -260.8 -316.5 -202.8 -351.3C-144.8 -386.1 -72.4 -395.9 0 -405.6L0 0Z" fill="#111722"></path><path d="M-338 0C-322 -54.6 -306 -109.3 -279.8 -161.6C-253.7 -213.8 -217.3 -263.7 -169 -292.7C-120.7 -321.7 -60.3 -329.9 0 -338L0 0Z" fill="#121924"></path><path d="M-270.4 0C-257.6 -43.7 -244.8 -87.4 -223.9 -129.3C-202.9 -171.1 -173.9 -211 -135.2 -234.2C-96.5 -257.4 -48.3 -263.9 0 -270.4L0 0Z" fill="#131a26"></path><path d="M-202.8 0C-193.2 -32.8 -183.6 -65.6 -167.9 -96.9C-152.2 -128.3 -130.4 -158.2 -101.4 -175.6C-72.4 -193 -36.2 -197.9 0 -202.8L0 0Z" fill="#141c28"></path><path d="M-135.2 0C-128.8 -21.9 -122.4 -43.7 -111.9 -64.6C-101.5 -85.5 -86.9 -105.5 -67.6 -117.1C-48.3 -128.7 -24.1 -132 0 -135.2L0 0Z" fill="#151e2b"></path><path d="M-67.6 0C-64.4 -10.9 -61.2 -21.9 -56 -32.3C-50.7 -42.8 -43.5 -52.7 -33.8 -58.5C-24.1 -64.3 -12.1 -66 0 -67.6L0 0Z" fill="#161f2c"></path></g><g transform="translate(0, 0)"><path d="M540.8 0C496.3 76.5 451.7 153 412.2 238C372.7 323 338.3 416.5 270.4 468.4C202.6 520.3 101.3 530.5 0 540.8L0 0Z" fill="#0e131d"></path><path d="M473.2 0C434.2 66.9 395.3 133.9 360.7 208.2C326.1 282.6 296 364.4 236.6 409.8C177.2 455.2 88.6 464.2 0 473.2L0 0Z" fill="#10151f"></path><path d="M405.6 0C372.2 57.4 338.8 114.8 309.2 178.5C279.5 242.2 253.7 312.4 202.8 351.3C151.9 390.2 76 397.9 0 405.6L0 0Z" fill="#111722"></path><path d="M338 0C310.2 47.8 282.3 95.6 257.6 148.7C233 201.9 211.4 260.3 169 292.7C126.6 325.2 63.3 331.6 0 338L0 0Z" fill="#121924"></path><path d="M270.4 0C248.1 38.3 225.9 76.5 206.1 119C186.4 161.5 169.1 208.2 135.2 234.2C101.3 260.1 50.6 265.3 0 270.4L0 0Z" fill="#131a26"></path><path d="M202.8 0C186.1 28.7 169.4 57.4 154.6 89.2C139.8 121.1 126.9 156.2 101.4 175.6C76 195.1 38 199 0 202.8L0 0Z" fill="#141c28"></path><path d="M135.2 0C124.1 19.1 112.9 38.3 103.1 59.5C93.2 80.7 84.6 104.1 67.6 117.1C50.6 130.1 25.3 132.6 0 135.2L0 0Z" fill="#151e2b"></path><path d="M67.6 0C62 9.6 56.5 19.1 51.5 29.7C46.6 40.4 42.3 52.1 33.8 58.5C25.3 65 12.7 66.3 0 67.6L0 0Z" fill="#161f2c"></path></g></svg>